<mxfile host="app.diagrams.net" modified="2023-10-25T15:13:25.912Z" agent="Mozilla/5.0 (Windows NT 10.0; Win64; x64) AppleWebKit/537.36 (KHTML, like Gecko) Chrome/118.0.0.0 Safari/537.36 Edg/118.0.2088.61" etag="dJRbYLwNb_D7vNoEJ8lY" version="22.0.8" type="google">
  <diagram name="Page-1" id="CLePfs5B8r3XghXSvXAX">
    <mxGraphModel dx="1002" dy="1669" grid="1" gridSize="10" guides="1" tooltips="1" connect="1" arrows="1" fold="1" page="1" pageScale="1" pageWidth="850" pageHeight="1100" math="0" shadow="0">
      <root>
        <mxCell id="0" />
        <mxCell id="1" parent="0" />
        <mxCell id="tdi02UYNaV7vJihuhUmv-3" value="" style="edgeStyle=orthogonalEdgeStyle;rounded=0;orthogonalLoop=1;jettySize=auto;html=1;" edge="1" parent="1" source="tdi02UYNaV7vJihuhUmv-1" target="tdi02UYNaV7vJihuhUmv-2">
          <mxGeometry relative="1" as="geometry" />
        </mxCell>
        <mxCell id="tdi02UYNaV7vJihuhUmv-1" value="start&amp;nbsp;" style="ellipse;whiteSpace=wrap;html=1;" vertex="1" parent="1">
          <mxGeometry x="150" y="-480" width="120" height="40" as="geometry" />
        </mxCell>
        <mxCell id="tdi02UYNaV7vJihuhUmv-5" value="" style="edgeStyle=orthogonalEdgeStyle;rounded=0;orthogonalLoop=1;jettySize=auto;html=1;" edge="1" parent="1" source="tdi02UYNaV7vJihuhUmv-2" target="tdi02UYNaV7vJihuhUmv-4">
          <mxGeometry relative="1" as="geometry" />
        </mxCell>
        <mxCell id="tdi02UYNaV7vJihuhUmv-2" value="n1,n2,n3" style="shape=parallelogram;perimeter=parallelogramPerimeter;whiteSpace=wrap;html=1;fixedSize=1;" vertex="1" parent="1">
          <mxGeometry x="150" y="-420" width="120" height="30" as="geometry" />
        </mxCell>
        <mxCell id="tdi02UYNaV7vJihuhUmv-7" value="" style="edgeStyle=orthogonalEdgeStyle;rounded=0;orthogonalLoop=1;jettySize=auto;html=1;" edge="1" parent="1" source="tdi02UYNaV7vJihuhUmv-4" target="tdi02UYNaV7vJihuhUmv-6">
          <mxGeometry relative="1" as="geometry" />
        </mxCell>
        <mxCell id="tdi02UYNaV7vJihuhUmv-9" value="" style="edgeStyle=orthogonalEdgeStyle;rounded=0;orthogonalLoop=1;jettySize=auto;html=1;" edge="1" parent="1" source="tdi02UYNaV7vJihuhUmv-4" target="tdi02UYNaV7vJihuhUmv-8">
          <mxGeometry relative="1" as="geometry" />
        </mxCell>
        <mxCell id="tdi02UYNaV7vJihuhUmv-4" value="n1&amp;gt;n2&lt;br&gt;n1&amp;gt;n3" style="rhombus;whiteSpace=wrap;html=1;" vertex="1" parent="1">
          <mxGeometry x="170" y="-370" width="80" height="75" as="geometry" />
        </mxCell>
        <mxCell id="tdi02UYNaV7vJihuhUmv-6" value="&quot;the highest number is &quot;, num1" style="shape=document;whiteSpace=wrap;html=1;boundedLbl=1;" vertex="1" parent="1">
          <mxGeometry x="310" y="-372.5" width="120" height="80" as="geometry" />
        </mxCell>
        <mxCell id="tdi02UYNaV7vJihuhUmv-11" value="" style="edgeStyle=orthogonalEdgeStyle;rounded=0;orthogonalLoop=1;jettySize=auto;html=1;" edge="1" parent="1" source="tdi02UYNaV7vJihuhUmv-8" target="tdi02UYNaV7vJihuhUmv-10">
          <mxGeometry relative="1" as="geometry" />
        </mxCell>
        <mxCell id="tdi02UYNaV7vJihuhUmv-15" value="" style="edgeStyle=orthogonalEdgeStyle;rounded=0;orthogonalLoop=1;jettySize=auto;html=1;" edge="1" parent="1" source="tdi02UYNaV7vJihuhUmv-8" target="tdi02UYNaV7vJihuhUmv-14">
          <mxGeometry relative="1" as="geometry" />
        </mxCell>
        <mxCell id="tdi02UYNaV7vJihuhUmv-8" value="num2&amp;gt;num3" style="rhombus;whiteSpace=wrap;html=1;" vertex="1" parent="1">
          <mxGeometry x="170" y="-260" width="80" height="75" as="geometry" />
        </mxCell>
        <mxCell id="tdi02UYNaV7vJihuhUmv-10" value="&quot;the highest number is &quot; num2" style="shape=document;whiteSpace=wrap;html=1;boundedLbl=1;" vertex="1" parent="1">
          <mxGeometry x="310" y="-262.5" width="120" height="80" as="geometry" />
        </mxCell>
        <mxCell id="tdi02UYNaV7vJihuhUmv-21" value="" style="edgeStyle=orthogonalEdgeStyle;rounded=0;orthogonalLoop=1;jettySize=auto;html=1;" edge="1" parent="1" source="tdi02UYNaV7vJihuhUmv-14" target="tdi02UYNaV7vJihuhUmv-20">
          <mxGeometry relative="1" as="geometry" />
        </mxCell>
        <mxCell id="tdi02UYNaV7vJihuhUmv-14" value="&quot;the highest number is &quot; nnum3" style="shape=document;whiteSpace=wrap;html=1;boundedLbl=1;" vertex="1" parent="1">
          <mxGeometry x="150" y="-150" width="120" height="80" as="geometry" />
        </mxCell>
        <mxCell id="tdi02UYNaV7vJihuhUmv-16" value="yes" style="text;html=1;align=center;verticalAlign=middle;resizable=0;points=[];autosize=1;strokeColor=none;fillColor=none;" vertex="1" parent="1">
          <mxGeometry x="240" y="-372" width="40" height="30" as="geometry" />
        </mxCell>
        <mxCell id="tdi02UYNaV7vJihuhUmv-17" value="no" style="text;html=1;align=center;verticalAlign=middle;resizable=0;points=[];autosize=1;strokeColor=none;fillColor=none;" vertex="1" parent="1">
          <mxGeometry x="210" y="-292" width="40" height="30" as="geometry" />
        </mxCell>
        <mxCell id="tdi02UYNaV7vJihuhUmv-18" value="yes" style="text;html=1;align=center;verticalAlign=middle;resizable=0;points=[];autosize=1;strokeColor=none;fillColor=none;" vertex="1" parent="1">
          <mxGeometry x="250" y="-252" width="40" height="30" as="geometry" />
        </mxCell>
        <mxCell id="tdi02UYNaV7vJihuhUmv-19" value="no" style="text;html=1;align=center;verticalAlign=middle;resizable=0;points=[];autosize=1;strokeColor=none;fillColor=none;" vertex="1" parent="1">
          <mxGeometry x="210" y="-182" width="40" height="30" as="geometry" />
        </mxCell>
        <mxCell id="tdi02UYNaV7vJihuhUmv-20" value="end" style="ellipse;whiteSpace=wrap;html=1;" vertex="1" parent="1">
          <mxGeometry x="170" y="-40" width="80" height="50" as="geometry" />
        </mxCell>
        <mxCell id="tdi02UYNaV7vJihuhUmv-22" value="" style="endArrow=classic;html=1;rounded=0;" edge="1" parent="1">
          <mxGeometry width="50" height="50" relative="1" as="geometry">
            <mxPoint x="430" y="-342" as="sourcePoint" />
            <mxPoint x="220" y="-60" as="targetPoint" />
            <Array as="points">
              <mxPoint x="490" y="-341.5" />
              <mxPoint x="490" y="-60" />
            </Array>
          </mxGeometry>
        </mxCell>
        <mxCell id="tdi02UYNaV7vJihuhUmv-23" value="" style="endArrow=classic;html=1;rounded=0;" edge="1" parent="1">
          <mxGeometry width="50" height="50" relative="1" as="geometry">
            <mxPoint x="430" y="-230" as="sourcePoint" />
            <mxPoint x="490" y="-230" as="targetPoint" />
          </mxGeometry>
        </mxCell>
        <mxCell id="tdi02UYNaV7vJihuhUmv-24" value="BIGGEST OF THREE NUMBERS" style="text;html=1;align=center;verticalAlign=middle;resizable=0;points=[];autosize=1;strokeColor=none;fillColor=none;" vertex="1" parent="1">
          <mxGeometry x="190" y="-565" width="200" height="30" as="geometry" />
        </mxCell>
      </root>
    </mxGraphModel>
  </diagram>
</mxfile>
